<?xml version="1.0" encoding="UTF-8"?>
<svg id="Layer_1" xmlns="http://www.w3.org/2000/svg" version="1.1" viewBox="0 0 24 24">
  <!-- Generator: Adobe Illustrator 30.2.1, SVG Export Plug-In . SVG Version: 2.1.1 Build 1)  -->
  <defs>
    <style>
      .st0 {
        fill: #fbb8d9;
      }

      .st1 {
        fill: #e60981;
      }
    </style>
  </defs>
  <path class="st0" d="M9,13.3v6.8c-1.4.1-2.7.2-3.8-.3-1.8-.7-3-2.5-3.1-4.4-.1-3-.1-6,0-9,.1-2.9,2.3-4.8,5.1-4.8h7.8c2.2,0,3.8,1.3,4.5,3.4s.4,2.3.3,3.6h-5.4c-2.8,0-5.3,1.8-5.4,4.7Z"/>
  <path class="st1" d="M22,19.2c0,3.9-4.9,3.1-7.8,3.1-1.6,0-3-1.1-3.1-2.8s-.1-3.8,0-5.7,1.5-2.9,3.1-2.9h5c1.6,0,2.8,1.4,2.8,3v5.3Z"/>
</svg>